<svg xmlns="http://www.w3.org/2000/svg"  viewBox="0 0 100 100" width="512px" height="512px"><path fill="#f9e65c" d="M90.005,48.25c-0.003-0.821-0.208-1.629-0.598-2.352l-7.068-13.125	c-1.208-2.296-3.588-3.735-6.182-3.74L58,29.007V72h1h26.001c2.761,0,4.999-2.238,5-4.999L90.005,48.25z"/><path fill="#78a2d2" d="M54,19H17c-2.761,0-5,2.239-5,5v47c0,0.552,0.448,1,1,1h46V24C59,21.239,56.761,19,54,19z"/><path fill="#8f9eb6" d="M12,57v14c0,0.552,0.448,1,1,1h46V57H12z"/><path fill="#78cdd4" d="M83,34h-8.5v0.5h-5c-1.105,0-2,0.895-2,2v15c0,1.104,0.895,2,2,2H90V47L83,34z"/><rect width="47" height="14" x="12" y="32" fill="#c7dff1"/><path fill="#1f212b" d="M90,54H69.5c-1.379,0-2.5-1.121-2.5-2.5v-15c0-1.379,1.121-2.5,2.5-2.5h5c0.276,0,0.5,0.224,0.5,0.5	S74.776,35,74.5,35h-5c-0.827,0-1.5,0.673-1.5,1.5v15c0,0.827,0.673,1.5,1.5,1.5H90c0.276,0,0.5,0.224,0.5,0.5S90.276,54,90,54z"/><circle cx="73" cy="72" r="3.5" fill="#ceccbe"/><path fill="#1f212b" d="M85.001,73H13c-1.103,0-2-0.897-2-2V24c0-3.309,2.691-6,6-6h37c3.309,0,6,2.691,6,6v4h16.159	c2.974,0.006,5.681,1.678,7.064,4.308l7.064,13.117c0.466,0.866,0.708,1.842,0.712,2.821v18.755C90.999,70.309,88.309,73,85.001,73z M17,20c-2.206,0-4,1.794-4,4v47h72.001c2.205,0,3.998-1.794,3.999-3.999V48.25c-0.002-0.649-0.163-1.3-0.474-1.877l-7.068-13.125	c-1.042-1.981-3.072-3.244-5.303-3.248H58.998C58.446,29.999,58,29.552,58,29v-5c0-2.206-1.794-4-4-4H17z"/><rect width="1" height="43" x="58" y="29" fill="#1f212b"/><rect width="46" height="1" x="12" y="57" fill="#1f212b"/><path fill="#f15b6c" d="M16.5,67.5h-4v-6h4c1.105,0,2,0.895,2,2v2C18.5,66.605,17.605,67.5,16.5,67.5z"/><path fill="#f15b6c" d="M85.5,61.5h4v6h-4c-1.105,0-2-0.895-2-2v-2C83.5,62.395,84.395,61.5,85.5,61.5z"/><path fill="#1f212b" d="M16.5,68h-4c-0.276,0-0.5-0.224-0.5-0.5v-6c0-0.276,0.224-0.5,0.5-0.5h4c1.379,0,2.5,1.121,2.5,2.5v2	C19,66.879,17.879,68,16.5,68z M13,67h3.5c0.827,0,1.5-0.673,1.5-1.5v-2c0-0.827-0.673-1.5-1.5-1.5H13V67z"/><path fill="#1f212b" d="M89.5,68h-4c-1.379,0-2.5-1.121-2.5-2.5v-2c0-1.379,1.121-2.5,2.5-2.5h4c0.276,0,0.5,0.224,0.5,0.5v6	C90,67.776,89.776,68,89.5,68z M85.5,62c-0.827,0-1.5,0.673-1.5,1.5v2c0,0.827,0.673,1.5,1.5,1.5H89v-5H85.5z"/><circle cx="29" cy="72" r="8.5" fill="#565fa1"/><circle cx="29" cy="72" r="3.5" fill="#ceccbe"/><path fill="#1f212b" d="M29,81c-4.963,0-9-4.037-9-9s4.037-9,9-9s9,4.037,9,9S33.963,81,29,81z M29,64c-4.411,0-8,3.589-8,8	s3.589,8,8,8s8-3.589,8-8S33.411,64,29,64z"/><path fill="#1f212b" d="M29,76c-2.206,0-4-1.794-4-4s1.794-4,4-4s4,1.794,4,4S31.206,76,29,76z M29,69c-1.654,0-3,1.346-3,3	s1.346,3,3,3s3-1.346,3-3S30.654,69,29,69z"/><circle cx="73" cy="72" r="8.5" fill="#565fa1"/><path fill="#1f212b" d="M73,81c-4.963,0-9-4.037-9-9s4.037-9,9-9s9,4.037,9,9S77.963,81,73,81z M73,64c-4.411,0-8,3.589-8,8	s3.589,8,8,8s8-3.589,8-8S77.411,64,73,64z"/><circle cx="73" cy="72" r="3.5" fill="#ceccbe"/><path fill="#1f212b" d="M73,76c-2.206,0-4-1.794-4-4s1.794-4,4-4s4,1.794,4,4S75.206,76,73,76z M73,69c-1.654,0-3,1.346-3,3	s1.346,3,3,3s3-1.346,3-3S74.654,69,73,69z"/><path fill="#1f212b" d="M43.5,33h-31c-0.276,0-0.5-0.224-0.5-0.5s0.224-0.5,0.5-0.5h31c0.276,0,0.5,0.224,0.5,0.5	S43.776,33,43.5,33z"/><path fill="#1f212b" d="M58.5,46h-46c-0.276,0-0.5-0.224-0.5-0.5s0.224-0.5,0.5-0.5h46c0.276,0,0.5,0.224,0.5,0.5	S58.776,46,58.5,46z"/><path fill="#1f212b" d="M55.5,33h-1c-0.276,0-0.5-0.224-0.5-0.5s0.224-0.5,0.5-0.5h1c0.276,0,0.5,0.224,0.5,0.5	S55.776,33,55.5,33z"/><path fill="#1f212b" d="M51.5,33h-5c-0.276,0-0.5-0.224-0.5-0.5s0.224-0.5,0.5-0.5h5c0.276,0,0.5,0.224,0.5,0.5	S51.776,33,51.5,33z"/><path fill="#1f212b" d="M77.5,35h-1c-0.276,0-0.5-0.224-0.5-0.5s0.224-0.5,0.5-0.5h1c0.276,0,0.5,0.224,0.5,0.5	S77.776,35,77.5,35z"/><path fill="#1f212b" d="M80.5,35h-1c-0.276,0-0.5-0.224-0.5-0.5s0.224-0.5,0.5-0.5h1c0.276,0,0.5,0.224,0.5,0.5	S80.776,35,80.5,35z"/></svg>